<svg class="d-block" fill="none" xmlns="http://www.w3.org/2000/svg" viewBox="0 0 42 47">
  <path
    d="M36.523 0H5.703C3.104 0 .988 2.162.988 4.841v31.772c0 2.679 2.116 4.841 4.715 4.841h26.082l-1.219-4.348 2.944 2.797 2.783 2.632L41.238 47V4.841C41.238 2.162 39.122 0 36.523 0Zm-8.878 30.691s-.828-1.01-1.518-1.903c3.013-.87 4.163-2.797 4.163-2.797a13.058 13.058 0 0 1-2.645 1.387c-1.15.493-2.254.822-3.335 1.01-2.208.423-4.232.305-5.957-.024a18.997 18.997 0 0 1-3.38-1.01 13.347 13.347 0 0 1-1.68-.799c-.069-.047-.138-.07-.207-.117-.046-.024-.069-.047-.092-.071a8.042 8.042 0 0 1-.644-.4s1.104 1.88 4.025 2.774c-.69.893-1.54 1.95-1.54 1.95-5.084-.165-7.016-3.572-7.016-3.572 0-7.567 3.312-13.7 3.312-13.7 3.312-2.539 6.463-2.468 6.463-2.468l.23.282c-4.14 1.222-6.049 3.079-6.049 3.079s.506-.282 1.357-.682c2.461-1.105 4.416-1.41 5.221-1.48.138-.024.253-.048.391-.048a19.05 19.05 0 0 1 4.646-.046c2.185.258 4.531.916 6.923 2.256 0 0-1.817-1.763-5.727-2.985l.322-.376s3.151-.07 6.463 2.467c0 0 3.312 6.134 3.312 13.701 0 0-1.955 3.407-7.038 3.572Z"
    fill="#fff" />
</svg>