<svg class="d-block" fill="none" xmlns="http://www.w3.org/2000/svg" viewBox="0 0 47 39">
  <path
    d="M14.786 38.595c17.731 0 27.432-14.694 27.432-27.432 0-.414-.009-.836-.027-1.249A19.581 19.581 0 0 0 47 4.922a19.013 19.013 0 0 1-5.534 1.515 9.695 9.695 0 0 0 4.24-5.333 19.383 19.383 0 0 1-6.121 2.34 9.655 9.655 0 0 0-16.439 8.793A27.386 27.386 0 0 1 3.276 2.169 9.653 9.653 0 0 0 6.26 15.036a9.655 9.655 0 0 1-4.369-1.202v.12a9.639 9.639 0 0 0 7.737 9.454 9.583 9.583 0 0 1-4.35.165 9.662 9.662 0 0 0 9.003 6.702A19.338 19.338 0 0 1 0 34.265a27.356 27.356 0 0 0 14.786 4.33Z"
    fill="#fff" />
</svg>