<svg width="84" height="1245" viewBox="0 0 84 1245" fill="none" xmlns="http://www.w3.org/2000/svg">
  <ellipse cx="12.4159" cy="695.872" rx="5.05652" ry="5.28828" fill="white" />
  <ellipse cx="43.8807" cy="844.314" rx="5.05652" ry="5.28828" fill="white" />
  <ellipse cx="78.5702" cy="1019.38" rx="5.05652" ry="5.28828" fill="white" />
  <path
    d="M11.6732 709.111L10.6744 709.061L11.6732 709.111ZM81.2892 489.956L82.2892 489.96L81.2892 489.956ZM10.7712 1228.93C10.5327 1229.43 10.7432 1230.03 11.2414 1230.26C11.7395 1230.5 12.3367 1230.29 12.5751 1229.79L10.7712 1228.93ZM81.2892 971.057L80.2907 971.112L81.2892 971.057ZM16.0967 1222.18C16.325 1221.68 16.1025 1221.09 15.5996 1220.86C15.0967 1220.63 14.5039 1220.85 14.2756 1221.36L16.0967 1222.18ZM21.0709 1205.98C20.8524 1206.49 21.0863 1207.07 21.5935 1207.29C22.1007 1207.51 22.6891 1207.28 22.9076 1206.77L21.0709 1205.98ZM29.4753 1191.17C29.6855 1190.66 29.4419 1190.08 28.9312 1189.87C28.4205 1189.66 27.8361 1189.9 27.6259 1190.41L29.4753 1191.17ZM33.9152 1174.78C33.7131 1175.3 33.966 1175.88 34.48 1176.08C34.994 1176.28 35.5745 1176.03 35.7765 1175.51L33.9152 1174.78ZM41.8168 1159.78C42.0105 1159.26 41.7483 1158.69 41.2311 1158.49C40.7139 1158.3 40.1376 1158.56 39.9439 1159.08L41.8168 1159.78ZM45.7178 1143.26C45.5329 1143.78 45.8048 1144.35 46.3252 1144.54C46.8456 1144.72 47.4174 1144.45 47.6024 1143.93L45.7178 1143.26ZM53.1188 1127.96C53.2942 1127.43 53.0119 1126.86 52.4882 1126.69C51.9645 1126.51 51.3978 1126.8 51.2224 1127.32L53.1188 1127.96ZM56.4107 1111.32C56.2456 1111.85 56.539 1112.41 57.0661 1112.57C57.5931 1112.74 58.1542 1112.44 58.3193 1111.92L56.4107 1111.32ZM63.1937 1095.75C63.3472 1095.22 63.0416 1094.66 62.5111 1094.51C61.9806 1094.35 61.4261 1094.66 61.2725 1095.19L63.1937 1095.75ZM65.7575 1078.97C65.6169 1079.5 65.936 1080.05 66.4701 1080.19C67.0042 1080.33 67.5511 1080.01 67.6916 1079.48L65.7575 1078.97ZM71.7662 1063.09C71.8918 1062.55 71.5577 1062.01 71.0199 1061.89C70.4821 1061.76 69.9443 1062.09 69.8186 1062.63L71.7662 1063.09ZM73.3891 1046.19C73.2808 1046.73 73.6321 1047.26 74.1736 1047.36C74.7152 1047.47 75.242 1047.12 75.3503 1046.58L73.3891 1046.19ZM78.3585 1029.95C78.4462 1029.41 78.0753 1028.89 77.53 1028.81C76.9848 1028.72 76.4716 1029.09 76.3839 1029.64L78.3585 1029.95ZM78.6892 1012.99C78.6263 1013.54 79.0201 1014.03 79.5687 1014.09C80.1174 1014.16 80.6132 1013.76 80.6762 1013.21L78.6892 1012.99ZM82.1512 996.354C82.1834 995.802 81.7625 995.329 81.2112 995.297C80.6598 995.265 80.1868 995.686 80.1546 996.237L82.1512 996.354ZM80.5663 979.476C80.573 980.028 81.0261 980.47 81.5784 980.464C82.1306 980.457 82.5729 980.004 82.5662 979.452L80.5663 979.476ZM81.7506 963.374C81.7032 962.824 81.2187 962.417 80.6685 962.464C80.1182 962.511 79.7106 962.996 79.758 963.546L81.7506 963.374ZM77.9899 948.521C78.0715 949.067 78.5804 949.444 79.1266 949.362C79.6729 949.28 80.0495 948.771 79.9679 948.225L77.9899 948.521ZM77.2587 933.237C77.1442 932.696 76.6133 932.351 76.0731 932.466C75.5328 932.58 75.1876 933.111 75.3022 933.651L77.2587 933.237ZM71.7391 918.942C71.884 919.475 72.4335 919.79 72.9665 919.645C73.4994 919.5 73.8139 918.95 73.669 918.418L71.7391 918.942ZM69.2923 903.819C69.1208 903.294 68.5562 903.007 68.0312 903.178C67.5062 903.35 67.2196 903.915 67.3911 904.44L69.2923 903.819ZM62.379 890.148C62.5722 890.666 63.1482 890.929 63.6656 890.736C64.183 890.542 64.4458 889.966 64.2527 889.449L62.379 890.148ZM58.6957 875.283C58.4865 874.772 57.9026 874.527 57.3914 874.736C56.8803 874.945 56.6356 875.529 56.8448 876.04L58.6957 875.283ZM50.948 862.066C51.1672 862.573 51.7558 862.807 52.2628 862.587C52.7697 862.368 53.003 861.78 52.7838 861.273L50.948 862.066ZM46.6898 847.352C46.4671 846.847 45.8769 846.618 45.3715 846.84C44.8661 847.063 44.6369 847.653 44.8596 848.159L46.6898 847.352ZM38.7588 834.241C38.9784 834.748 39.5673 834.981 40.074 834.761C40.5807 834.541 40.8135 833.952 40.5939 833.446L38.7588 834.241ZM34.6812 819.476C34.4714 818.965 33.8872 818.721 33.3763 818.931C32.8654 819.141 32.6213 819.725 32.831 820.236L34.6812 819.476ZM27.2637 806.072C27.4569 806.589 28.0329 806.852 28.5503 806.659C29.0677 806.466 29.3306 805.89 29.1374 805.372L27.2637 806.072ZM24.1455 791.078C23.9756 790.552 23.4118 790.264 22.8863 790.434C22.3608 790.604 22.0726 791.167 22.2425 791.693L24.1455 791.078ZM17.9427 777.071C18.0835 777.605 18.6305 777.924 19.1645 777.783C19.6986 777.643 20.0175 777.096 19.8767 776.562L17.9427 777.071ZM16.4794 761.821C16.3728 761.279 15.8471 760.926 15.3052 761.032C14.7633 761.139 14.4104 761.665 14.517 762.207L16.4794 761.821ZM12.0848 747.148C12.1539 747.696 12.6541 748.084 13.202 748.015C13.75 747.946 14.1382 747.446 14.0691 746.898L12.0848 747.148ZM12.7118 731.86C12.6817 731.309 12.2102 730.886 11.6588 730.916C11.1073 730.946 10.6846 731.418 10.7147 731.969L12.7118 731.86ZM10.422 716.71C10.4133 717.262 10.8539 717.717 11.4061 717.726C11.9583 717.735 12.413 717.294 12.4218 716.742L10.422 716.71ZM13.2714 700.934C13.3241 700.384 12.9212 699.896 12.3714 699.843C11.8217 699.791 11.3333 700.194 11.2806 700.743L13.2714 700.934ZM13.6314 684.232C13.5287 684.775 13.8853 685.298 14.428 685.401C14.9707 685.503 15.4938 685.147 15.5965 684.604L13.6314 684.232ZM19.3752 668.548C19.5246 668.016 19.2147 667.464 18.683 667.315C18.1513 667.165 17.5991 667.475 17.4497 668.007L19.3752 668.548ZM22.5796 652.164C22.3901 652.683 22.6571 653.257 23.1759 653.447C23.6947 653.636 24.2688 653.369 24.4582 652.85L22.5796 652.164ZM30.6108 637.524C30.8311 637.018 30.5992 636.429 30.0928 636.208C29.5864 635.988 28.9972 636.22 28.7769 636.726L30.6108 637.524ZM35.7463 621.632C35.5054 622.129 35.7131 622.727 36.2101 622.968C36.7071 623.209 37.3052 623.001 37.5461 622.504L35.7463 621.632ZM44.9404 607.683C45.1908 607.191 44.9947 606.589 44.5025 606.338C44.0102 606.088 43.4082 606.284 43.1578 606.776L44.9404 607.683ZM50.6801 592.001C50.4312 592.494 50.6292 593.096 51.1222 593.345C51.6152 593.594 52.2167 593.396 52.4655 592.903L50.6801 592.001ZM59.7852 577.995C60.0213 577.495 59.8079 576.899 59.3086 576.663C58.8093 576.427 58.2132 576.64 57.9771 577.14L59.7852 577.995ZM64.7117 562.038C64.4998 562.548 64.7414 563.133 65.2515 563.345C65.7615 563.557 66.3467 563.316 66.5586 562.806L64.7117 562.038ZM72.444 547.237C72.6208 546.714 72.3401 546.146 71.8169 545.97C71.2937 545.793 70.7262 546.073 70.5493 546.597L72.444 547.237ZM75.1905 530.773C75.0579 531.309 75.3851 531.851 75.9212 531.984C76.4574 532.116 76.9995 531.789 77.132 531.253L75.1905 530.773ZM80.3807 514.898C80.4625 514.352 80.0861 513.843 79.5399 513.761C78.9937 513.679 78.4846 514.056 78.4028 514.602L80.3807 514.898ZM80.0555 498.195C80.0268 498.746 80.4505 499.217 81.0021 499.246C81.5536 499.274 82.0241 498.851 82.0528 498.299L80.0555 498.195ZM82.1151 481.483C82.0897 480.932 81.6218 480.505 81.0701 480.53C80.5184 480.556 80.0918 481.024 80.1172 481.575L82.1151 481.483ZM78.4848 464.906C78.5668 465.453 79.0761 465.829 79.6223 465.747C80.1684 465.665 80.5446 465.155 80.4625 464.609L78.4848 464.906ZM77.1061 448C76.9704 447.465 76.4263 447.141 75.891 447.277C75.3557 447.412 75.0317 447.956 75.1674 448.492L77.1061 448ZM70.3245 432.454C70.5065 432.976 71.0767 433.251 71.5981 433.069C72.1196 432.887 72.3948 432.317 72.2129 431.795L70.3245 432.454ZM66.0631 416.041C65.8454 415.534 65.2574 415.299 64.7498 415.517C64.2423 415.734 64.0074 416.322 64.2251 416.83L66.0631 416.041ZM57.2035 401.566C57.4453 402.062 58.0439 402.269 58.5404 402.027C59.0369 401.785 59.2434 401.187 59.0016 400.69L57.2035 401.566ZM51.3992 385.627C51.1453 385.136 50.5419 384.945 50.0514 385.198C49.5609 385.452 49.3691 386.056 49.623 386.546L51.3992 385.627ZM41.8455 371.599C42.0995 372.09 42.703 372.281 43.1934 372.027C43.6838 371.773 43.8754 371.17 43.6214 370.679L41.8455 371.599ZM36.0309 355.664C35.7886 355.168 35.1898 354.962 34.6935 355.204C34.1972 355.446 33.9913 356.045 34.2336 356.541L36.0309 355.664ZM27.1518 341.2C27.3705 341.707 27.9588 341.941 28.466 341.723C28.9732 341.504 29.2071 340.916 28.9885 340.409L27.1518 341.2ZM22.8561 324.796C22.6728 324.275 22.1019 324.001 21.5809 324.185C21.0599 324.368 20.7861 324.939 20.9694 325.46L22.8561 324.796ZM16.0294 309.27C16.1669 309.805 16.7119 310.127 17.2468 309.989C17.7817 309.852 18.1039 309.307 17.9664 308.772L16.0294 309.27ZM14.5886 292.369C14.5043 291.823 13.9935 291.449 13.4477 291.533C12.9019 291.617 12.5277 292.128 12.612 292.674L14.5886 292.369ZM10.8868 275.808C10.9147 276.359 11.3845 276.784 11.9361 276.756C12.4877 276.728 12.9122 276.258 12.8842 275.706L10.8868 275.808ZM12.7724 259.278C12.7862 258.726 12.3497 258.267 11.7976 258.254C11.2455 258.24 10.7868 258.676 10.773 259.228L12.7724 259.278ZM11.5991 243.037C11.5562 243.587 11.9679 244.068 12.5185 244.111C13.0692 244.154 13.5502 243.742 13.593 243.192L11.5991 243.037ZM15.2747 227.172C15.3471 226.624 14.9618 226.122 14.4143 226.049C13.8668 225.977 13.3643 226.362 13.292 226.91L15.2747 227.172ZM15.8178 210.912C15.7186 211.455 16.0786 211.976 16.622 212.075C17.1653 212.174 17.6861 211.814 17.7853 211.271L15.8178 210.912ZM20.9977 195.488C21.1175 194.949 20.7776 194.415 20.2385 194.295C19.6994 194.175 19.1652 194.515 19.0454 195.054L20.9977 195.488ZM22.7509 179.314C22.6192 179.85 22.9473 180.392 23.4836 180.523C24.02 180.655 24.5615 180.327 24.6932 179.791L22.7509 179.314ZM28.6013 164.117C28.7354 163.582 28.4097 163.039 27.8739 162.905C27.3381 162.771 26.7951 163.096 26.6611 163.632L28.6013 164.117ZM30.5048 147.967C30.3768 148.504 30.7086 149.044 31.2458 149.171C31.7831 149.299 32.3224 148.968 32.4503 148.43L30.5048 147.967ZM36.0309 132.666C36.1468 132.126 35.803 131.595 35.263 131.479C34.723 131.363 34.1913 131.707 34.0755 132.247L36.0309 132.666ZM37.234 116.441C37.1338 116.984 37.4929 117.505 38.0361 117.605C38.5792 117.705 39.1007 117.346 39.2008 116.803L37.234 116.441ZM41.8836 100.848C41.9664 100.302 41.591 99.7925 41.0449 99.7097C40.4989 99.6268 39.9891 100.002 39.9062 100.548L41.8836 100.848ZM42.0705 84.5697C42.0051 85.1181 42.3966 85.6157 42.945 85.6812C43.4934 85.7466 43.991 85.3551 44.0565 84.8067L42.0705 84.5697ZM45.73 68.6765C45.7787 68.1263 45.3722 67.6409 44.8221 67.5922C44.2719 67.5435 43.7865 67.95 43.7378 68.5001L45.73 68.6765ZM44.9266 52.4708C44.8934 53.0221 45.3134 53.4959 45.8647 53.5291C46.416 53.5623 46.8898 53.1423 46.923 52.5911L44.9266 52.4708ZM47.6856 36.372C47.7045 35.82 47.2724 35.3572 46.7204 35.3383C46.1685 35.3194 45.7057 35.7516 45.6868 36.3035L47.6856 36.372ZM46.0465 20.2374C46.0405 20.7897 46.4832 21.2423 47.0355 21.2483C47.5878 21.2543 48.0403 20.8115 48.0464 20.2593L46.0465 20.2374ZM11.6732 1229.36C12.5751 1229.79 12.5752 1229.79 12.5752 1229.79C12.5752 1229.79 12.5752 1229.79 12.5752 1229.79C12.5753 1229.79 12.5754 1229.79 12.5754 1229.79C12.5756 1229.79 12.5759 1229.79 12.5762 1229.79C12.5769 1229.79 12.5779 1229.79 12.5792 1229.79C12.5817 1229.78 12.5856 1229.77 12.5906 1229.76C12.6008 1229.74 12.6159 1229.71 12.6358 1229.67C12.6757 1229.58 12.735 1229.46 12.8131 1229.29C12.9693 1228.96 13.2005 1228.47 13.5012 1227.83C14.1027 1226.54 14.9824 1224.64 16.0967 1222.18L14.2756 1221.36C13.1644 1223.8 12.2877 1225.7 11.689 1226.98C11.3897 1227.62 11.1599 1228.11 11.0051 1228.44C10.9277 1228.6 10.8691 1228.72 10.8299 1228.81C10.8103 1228.85 10.7955 1228.88 10.7857 1228.9C10.7808 1228.91 10.7771 1228.92 10.7747 1228.92C10.7735 1228.93 10.7726 1228.93 10.772 1228.93C10.7717 1228.93 10.7715 1228.93 10.7714 1228.93C10.7713 1228.93 10.7713 1228.93 10.7712 1228.93C10.7712 1228.93 10.7712 1228.93 10.7712 1228.93C10.7712 1228.93 10.7712 1228.93 11.6732 1229.36ZM22.9076 1206.77C24.9014 1202.14 27.1124 1196.92 29.4753 1191.17L27.6259 1190.41C25.2674 1196.14 23.0607 1201.36 21.0709 1205.98L22.9076 1206.77ZM35.7765 1175.51C37.7433 1170.51 39.7665 1165.25 41.8168 1159.78L39.9439 1159.08C37.8976 1164.54 35.8783 1169.79 33.9152 1174.78L35.7765 1175.51ZM47.6024 1143.93C49.4481 1138.74 51.2937 1133.4 53.1188 1127.96L51.2224 1127.32C49.4014 1132.76 47.5597 1138.08 45.7178 1143.26L47.6024 1143.93ZM58.3193 1111.92C59.9857 1106.59 61.6163 1101.2 63.1937 1095.75L61.2725 1095.19C59.6994 1100.63 58.0731 1106.01 56.4107 1111.32L58.3193 1111.92ZM67.6916 1079.48C69.1232 1074.03 70.4868 1068.56 71.7662 1063.09L69.8186 1062.63C68.5438 1068.09 67.1846 1073.54 65.7575 1078.97L67.6916 1079.48ZM75.3503 1046.58C76.4632 1041.01 77.4717 1035.46 78.3585 1029.95L76.3839 1029.64C75.5014 1035.12 74.4974 1040.64 73.3891 1046.19L75.3503 1046.58ZM80.6762 1013.21C81.3297 1007.52 81.8282 1001.89 82.1512 996.354L80.1546 996.237C79.834 1001.73 79.3389 1007.32 78.6892 1012.99L80.6762 1013.21ZM82.5662 979.452C82.5316 976.597 82.4398 973.78 82.2877 971.003L80.2907 971.112C80.4412 973.859 80.5321 976.648 80.5663 979.476L82.5662 979.452ZM82.2877 971.003C82.1468 968.43 81.9671 965.888 81.7506 963.374L79.758 963.546C79.9727 966.039 80.151 968.56 80.2907 971.112L82.2877 971.003ZM79.9679 948.225C79.2049 943.117 78.2952 938.126 77.2587 933.237L75.3022 933.651C76.3306 938.503 77.2331 943.454 77.9899 948.521L79.9679 948.225ZM73.669 918.418C72.3203 913.459 70.8535 908.598 69.2923 903.819L67.3911 904.44C68.9429 909.19 70.4 914.019 71.7391 918.942L73.669 918.418ZM64.2527 889.449C62.4666 884.665 60.6055 879.949 58.6957 875.283L56.8448 876.04C58.7481 880.691 60.6014 885.387 62.379 890.148L64.2527 889.449ZM52.7838 861.273C50.7667 856.607 48.7258 851.973 46.6898 847.352L44.8596 848.159C46.8959 852.78 48.9341 857.408 50.948 862.066L52.7838 861.273ZM40.5939 833.446C38.5815 828.803 36.6015 824.153 34.6812 819.476L32.831 820.236C34.7578 824.929 36.7432 829.591 38.7588 834.241L40.5939 833.446ZM29.1374 805.372C27.3784 800.66 25.7055 795.902 24.1455 791.078L22.2425 791.693C23.8128 796.549 25.4958 801.335 27.2637 806.072L29.1374 805.372ZM19.8767 776.562C18.6047 771.734 17.4641 766.827 16.4794 761.821L14.517 762.207C15.5104 767.257 16.6607 772.206 17.9427 777.071L19.8767 776.562ZM14.0691 746.898C13.4507 741.993 12.9914 736.986 12.7118 731.86L10.7147 731.969C10.997 737.143 11.4606 742.198 12.0848 747.148L14.0691 746.898ZM12.4218 716.742C12.4612 714.244 12.5439 711.718 12.6719 709.161L10.6744 709.061C10.5453 711.641 10.4619 714.19 10.422 716.71L12.4218 716.742ZM12.6719 709.161C12.8114 706.376 13.0126 703.634 13.2714 700.934L11.2806 700.743C11.0188 703.473 10.8154 706.245 10.6744 709.061L12.6719 709.161ZM15.5965 684.604C16.6387 679.097 17.9121 673.755 19.3752 668.548L17.4497 668.007C15.972 673.266 14.6851 678.665 13.6314 684.232L15.5965 684.604ZM24.4582 652.85C26.3621 647.636 28.4289 642.539 30.6108 637.524L28.7769 636.726C26.5815 641.772 24.4993 646.907 22.5796 652.164L24.4582 652.85ZM37.5461 622.504C39.9592 617.524 42.4406 612.597 44.9404 607.683L43.1578 606.776C40.656 611.694 38.1678 616.635 35.7463 621.632L37.5461 622.504ZM52.4655 592.903C54.9571 587.966 57.4149 583.008 59.7852 577.995L57.9771 577.14C55.617 582.132 53.1677 587.073 50.6801 592.001L52.4655 592.903ZM66.5586 562.806C68.6726 557.718 70.6513 552.539 72.444 547.237L70.5493 546.597C68.7731 551.85 66.8109 556.986 64.7117 562.038L66.5586 562.806ZM77.132 531.253C78.4423 525.953 79.5396 520.511 80.3807 514.898L78.4028 514.602C77.5714 520.15 76.4865 525.53 75.1905 530.773L77.132 531.253ZM82.0528 498.299C82.1956 495.562 82.2758 492.783 82.2892 489.96L80.2892 489.951C80.276 492.742 80.1967 495.489 80.0555 498.195L82.0528 498.299ZM82.2892 489.96C82.3028 487.09 82.2432 484.266 82.1151 481.483L80.1172 481.575C80.2438 484.324 80.3027 487.115 80.2892 489.951L82.2892 489.96ZM80.4625 464.609C79.6058 458.909 78.4707 453.383 77.1061 448L75.1674 448.492C76.5168 453.814 77.6384 459.276 78.4848 464.906L80.4625 464.609ZM72.2129 431.795C70.341 426.43 68.2722 421.19 66.0631 416.041L64.2251 416.83C66.4188 421.943 68.4701 427.139 70.3245 432.454L72.2129 431.795ZM59.0016 400.69C56.5344 395.624 53.9805 390.614 51.3992 385.627L49.623 386.546C52.2009 391.527 54.7465 396.521 57.2035 401.566L59.0016 400.69ZM43.6214 370.679C41.0422 365.7 38.4934 360.708 36.0309 355.664L34.2336 356.541C36.7061 361.606 39.2632 366.614 41.8455 371.599L43.6214 370.679ZM28.9885 340.409C26.7862 335.299 24.7239 330.107 22.8561 324.796L20.9694 325.46C22.8547 330.82 24.9343 336.056 27.1518 341.2L28.9885 340.409ZM17.9664 308.772C16.5992 303.453 15.4575 297.995 14.5886 292.369L12.612 292.674C13.4915 298.369 14.6469 303.891 16.0294 309.27L17.9664 308.772ZM12.8842 275.706C12.7451 272.958 12.6732 270.167 12.6732 267.332H10.6732C10.6732 270.201 10.7459 273.025 10.8868 275.808L12.8842 275.706ZM12.6732 267.332C12.6732 264.594 12.707 261.912 12.7724 259.278L10.773 259.228C10.7072 261.879 10.6732 264.578 10.6732 267.332H12.6732ZM13.593 243.192C14.0225 237.669 14.5911 232.347 15.2747 227.172L13.292 226.91C12.6038 232.119 12.0314 237.476 11.5991 243.037L13.593 243.192ZM17.7853 211.271C18.7604 205.929 19.8413 200.691 20.9977 195.488L19.0454 195.054C17.8845 200.277 16.7983 205.54 15.8178 210.912L17.7853 211.271ZM24.6932 179.791C25.9622 174.622 27.2743 169.423 28.6013 164.117L26.6611 163.632C25.3355 168.932 24.0213 174.14 22.7509 179.314L24.6932 179.791ZM32.4503 148.43C33.6646 143.333 34.8659 138.095 36.0309 132.666L34.0755 132.247C32.9142 137.658 31.7164 142.881 30.5048 147.967L32.4503 148.43ZM39.2008 116.803C40.1453 111.682 41.0448 106.375 41.8836 100.848L39.9062 100.548C39.0708 106.053 38.1748 111.339 37.234 116.441L39.2008 116.803ZM44.0565 84.8067C44.6745 79.6278 45.2358 74.2587 45.73 68.6765L43.7378 68.5001C43.2454 74.062 42.6862 79.4109 42.0705 84.5697L44.0565 84.8067ZM46.923 52.5911C47.2375 47.3675 47.494 41.9662 47.6856 36.372L45.6868 36.3035C45.4958 41.8808 45.2401 47.2648 44.9266 52.4708L46.923 52.5911ZM48.0464 20.2593C48.0756 17.5835 48.0905 14.866 48.0905 12.1055H46.0905C46.0905 14.8588 46.0756 17.569 46.0465 20.2374L48.0464 20.2593Z"
    fill="white" />
  <path
    d="M27.9607 182.779C27.9607 185.699 25.6968 188.067 22.9042 188.067C20.1115 188.067 17.8477 185.699 17.8477 182.779C17.8477 179.858 20.1115 177.49 22.9042 177.49C25.6968 177.49 27.9607 179.858 27.9607 182.779Z"
    fill="white" />
  <path
    d="M27.9607 182.779C27.9607 185.699 25.6968 188.067 22.9042 188.067C20.1115 188.067 17.8477 185.699 17.8477 182.779C17.8477 179.858 20.1115 177.49 22.9042 177.49C25.6968 177.49 27.9607 179.858 27.9607 182.779Z"
    stroke="white" />
  <path
    d="M21.5076 306.21C21.5076 309.131 19.2437 311.498 16.4511 311.498C13.6584 311.498 11.3945 309.131 11.3945 306.21C11.3945 303.29 13.6584 300.922 16.4511 300.922C19.2437 300.922 21.5076 303.29 21.5076 306.21Z"
    fill="white" />
  <path
    d="M21.5076 306.21C21.5076 309.131 19.2437 311.498 16.4511 311.498C13.6584 311.498 11.3945 309.131 11.3945 306.21C11.3945 303.29 13.6584 300.922 16.4511 300.922C19.2437 300.922 21.5076 303.29 21.5076 306.21Z"
    stroke="white" />
  <path
    d="M82.8201 522.421C82.8201 525.342 80.5562 527.709 77.7636 527.709C74.9709 527.709 72.707 525.342 72.707 522.421C72.707 519.5 74.9709 517.133 77.7636 517.133C80.5562 517.133 82.8201 519.5 82.8201 522.421Z"
    fill="white" />
  <path
    d="M82.8201 522.421C82.8201 525.342 80.5562 527.709 77.7636 527.709C74.9709 527.709 72.707 525.342 72.707 522.421C72.707 519.5 74.9709 517.133 77.7636 517.133C80.5562 517.133 82.8201 519.5 82.8201 522.421Z"
    stroke="white" />
  <ellipse cx="46.5173" cy="10.5805" rx="10.113" ry="10.5766" fill="white" />
  <ellipse cx="11.0193" cy="1234.42" rx="10.113" ry="10.5766" fill="white" />
</svg>