<svg width="38" height="1295" viewBox="0 0 38 1295" fill="none" xmlns="http://www.w3.org/2000/svg">
<path d="M1.92232 685.312L0.924241 685.25L1.92232 685.312ZM86.9395 469.506L85.9395 469.5L86.9395 469.506ZM1.92232 1197.61L0.922319 1197.61L1.92232 1197.61ZM86.9395 943.254L87.9372 943.186L86.9395 943.254ZM0.922319 1293.79C0.922295 1294.34 1.36999 1294.79 1.92228 1294.79C2.47456 1294.79 2.9223 1294.34 2.92232 1293.79H0.922319ZM2.92248 1285.79C2.92249 1285.24 2.47478 1284.79 1.9225 1284.79C1.37021 1284.79 0.922491 1285.24 0.922483 1285.79H2.92248ZM0.922605 1269.75C0.922603 1270.3 1.37032 1270.75 1.9226 1270.75C2.47489 1270.75 2.9226 1270.3 2.9226 1269.75H0.922605ZM2.92262 1253.75C2.92262 1253.2 2.47491 1252.75 1.92262 1252.75C1.37034 1252.75 0.922621 1253.2 0.922622 1253.75H2.92262ZM0.92258 1237.72C0.922582 1238.27 1.3703 1238.72 1.92258 1238.72C2.47487 1238.72 2.92258 1238.27 2.92258 1237.72H0.92258ZM2.9225 1221.7C2.92249 1221.15 2.47478 1220.7 1.92249 1220.7C1.37021 1220.7 0.922495 1221.15 0.922498 1221.7H2.9225ZM0.922385 1205.64C0.922389 1206.19 1.37011 1206.64 1.92239 1206.64C2.47468 1206.64 2.92239 1206.19 2.92238 1205.64H0.922385ZM3.08356 1190.06C3.10725 1189.51 2.67914 1189.05 2.12737 1189.02C1.57559 1189 1.10909 1189.43 1.0854 1189.98L3.08356 1190.06ZM2.39829 1174.82C2.32666 1175.37 2.71252 1175.87 3.26013 1175.94C3.80775 1176.01 4.30976 1175.63 4.3814 1175.08L2.39829 1174.82ZM6.97252 1160.29C7.09098 1159.75 6.74971 1159.21 6.21028 1159.09C5.67085 1158.98 5.13752 1159.32 5.01906 1159.86L6.97252 1160.29ZM8.89027 1145.15C8.72848 1145.67 9.0254 1146.23 9.55346 1146.4C10.0815 1146.56 10.6407 1146.26 10.8025 1145.73L8.89027 1145.15ZM15.7419 1131.51C15.9413 1131 15.6855 1130.42 15.1705 1130.22C14.6555 1130.02 14.0763 1130.27 13.8769 1130.79L15.7419 1131.51ZM19.8004 1116.81C19.5703 1117.31 19.7907 1117.9 20.2928 1118.13C20.7948 1118.36 21.3884 1118.14 21.6185 1117.64L19.8004 1116.81ZM28.236 1104.09C28.4893 1103.6 28.2968 1103 27.806 1102.74C27.3152 1102.49 26.712 1102.68 26.4587 1103.17L28.236 1104.09ZM33.64 1089.82C33.3713 1090.31 33.5446 1090.92 34.0272 1091.18C34.5097 1091.45 35.1187 1091.28 35.3874 1090.8L33.64 1089.82ZM42.8649 1077.66C43.1414 1077.18 42.978 1076.57 42.4999 1076.3C42.0218 1076.02 41.4101 1076.18 41.1336 1076.66L42.8649 1077.66ZM48.7278 1063.57C48.4512 1064.05 48.6145 1064.66 49.0925 1064.94C49.5705 1065.22 50.1822 1065.05 50.4589 1064.58L48.7278 1063.57ZM57.9569 1051.42C58.2258 1050.93 58.0527 1050.32 57.5703 1050.06C57.0878 1049.79 56.4788 1049.96 56.2099 1050.44L57.9569 1051.42ZM63.3585 1037.15C63.1057 1037.64 63.2989 1038.24 63.7899 1038.49C64.281 1038.75 64.884 1038.55 65.1367 1038.06L63.3585 1037.15ZM71.761 1024.41C71.9887 1023.9 71.7655 1023.31 71.2624 1023.08C70.7592 1022.86 70.1667 1023.08 69.939 1023.58L71.761 1024.41ZM75.7048 1009.67C75.5113 1010.19 75.7738 1010.76 76.2911 1010.96C76.8083 1011.15 77.3845 1010.89 77.578 1010.37L75.7048 1009.67ZM82.3321 995.927C82.4824 995.396 82.1735 994.843 81.642 994.693C81.1106 994.543 80.5579 994.852 80.4076 995.383L82.3321 995.927ZM83.8255 980.755C83.7256 981.298 84.085 981.819 84.6281 981.919C85.1713 982.019 85.6926 981.66 85.7925 981.117L83.8255 980.755ZM87.7952 966.036C87.8402 965.486 87.4305 965.003 86.8801 964.958C86.3296 964.913 85.8469 965.323 85.8018 965.873L87.7952 966.036ZM86.2698 950.852C86.2803 951.405 86.7364 951.844 87.2886 951.833C87.8408 951.823 88.2799 951.367 88.2694 950.814L86.2698 950.852ZM87.2646 935.518C87.2056 934.969 86.7125 934.572 86.1634 934.631C85.6143 934.69 85.217 935.183 85.2761 935.732L87.2646 935.518ZM83.0593 920.693C83.161 921.236 83.6835 921.593 84.2263 921.492C84.7692 921.39 85.1268 920.867 85.025 920.324L83.0593 920.693ZM81.6323 905.365C81.4903 904.832 80.9425 904.514 80.4088 904.656C79.8751 904.798 79.5575 905.346 79.6995 905.88L81.6323 905.365ZM75.2817 891.331C75.4598 891.853 76.0279 892.133 76.5507 891.955C77.0735 891.777 77.353 891.208 77.1749 890.686L75.2817 891.331ZM71.7899 876.322C71.5813 875.811 70.9976 875.566 70.4863 875.774C69.9749 875.983 69.7295 876.567 69.9381 877.078L71.7899 876.322ZM63.8355 863.125C64.0683 863.626 64.663 863.843 65.1638 863.61C65.6646 863.377 65.8819 862.783 65.649 862.282L63.8355 863.125ZM58.9347 848.52C58.6843 848.028 58.0823 847.832 57.59 848.082C57.0977 848.333 56.9016 848.935 57.1519 849.427L58.9347 848.52ZM50.0732 835.913C50.3342 836.4 50.9404 836.582 51.4271 836.321C51.9138 836.06 52.0967 835.454 51.8357 834.968L50.0732 835.913ZM44.5418 821.533C44.2769 821.048 43.6694 820.87 43.1847 821.135C42.7001 821.4 42.5219 822.008 42.7868 822.492L44.5418 821.533ZM35.483 809.063C35.7447 809.549 36.3512 809.731 36.8375 809.47C37.3238 809.208 37.5059 808.602 37.2442 808.115L35.483 809.063ZM30.1399 794.612C29.8885 794.12 29.2861 793.925 28.7943 794.177C28.3026 794.428 28.1077 795.031 28.359 795.522L30.1399 794.612ZM21.6195 781.771C21.8529 782.272 22.4479 782.488 22.9485 782.255C23.449 782.021 23.6655 781.426 23.432 780.926L21.6195 781.771ZM17.3318 766.976C17.124 766.465 16.5408 766.218 16.029 766.426C15.5173 766.634 15.2709 767.217 15.4786 767.729L17.3318 766.976ZM10.155 753.341C10.3293 753.865 10.8954 754.149 11.4194 753.975C11.9435 753.8 12.2271 753.234 12.0529 752.71L10.155 753.341ZM7.79837 738.114C7.66468 737.578 7.1219 737.252 6.58604 737.386C6.05018 737.52 5.72416 738.062 5.85785 738.598L7.79837 738.114ZM2.76981 723.562C2.85755 724.107 3.37071 724.478 3.91598 724.391C4.46125 724.303 4.83215 723.79 4.74441 723.244L2.76981 723.562ZM3.00165 708.172C2.96283 707.621 2.48475 707.206 1.93383 707.245C1.38291 707.284 0.967776 707.762 1.0066 708.313L3.00165 708.172ZM0.612602 692.949C0.602279 693.501 1.04155 693.957 1.59374 693.968C2.14592 693.978 2.60193 693.539 2.61225 692.987L0.612602 692.949ZM3.6777 677.065C3.74374 676.517 3.35278 676.019 2.80446 675.953C2.25614 675.887 1.75809 676.277 1.69205 676.826L3.6777 677.065ZM4.67797 660.185C4.54965 660.723 4.88109 661.262 5.41826 661.391C5.95543 661.519 6.49492 661.187 6.62324 660.65L4.67797 660.185ZM11.3676 644.66C11.5519 644.139 11.2792 643.568 10.7586 643.384C10.238 643.199 9.66652 643.472 9.48225 643.993L11.3676 644.66ZM15.8405 628.364C15.6106 628.866 15.8313 629.459 16.3335 629.689C16.8356 629.919 17.4291 629.698 17.659 629.196L15.8405 628.364ZM25.1607 614.253C25.4242 613.767 25.2444 613.16 24.759 612.897C24.2736 612.633 23.6665 612.813 23.403 613.299L25.1607 614.253ZM31.7933 598.701C31.5084 599.174 31.661 599.789 32.1341 600.074C32.6072 600.359 33.2217 600.206 33.5066 599.733L31.7933 598.701ZM42.3369 585.473C42.6316 585.006 42.4918 584.388 42.0247 584.094C41.5577 583.799 40.9401 583.939 40.6454 584.406L42.3369 585.473ZM49.6106 570.21C49.3174 570.678 49.4592 571.295 49.9272 571.588C50.3952 571.881 51.0123 571.739 51.3055 571.271L49.6106 570.21ZM60.0677 556.912C60.3479 556.436 60.1892 555.823 59.7133 555.543C59.2373 555.263 58.6244 555.422 58.3442 555.898L60.0677 556.912ZM66.4851 541.273C66.2303 541.762 66.4209 542.366 66.9109 542.621C67.4008 542.876 68.0046 542.685 68.2595 542.195L66.4851 541.273ZM75.4905 526.959C75.7069 526.451 75.4704 525.863 74.9623 525.647C74.4542 525.431 73.8668 525.667 73.6504 526.175L75.4905 526.959ZM79.4454 510.532C79.2803 511.059 79.5737 511.62 80.1007 511.785C80.6278 511.95 81.1888 511.657 81.3539 511.13L79.4454 510.532ZM85.4848 494.745C85.5882 494.202 85.2323 493.679 84.6898 493.575C84.1472 493.472 83.6236 493.828 83.5202 494.37L85.4848 494.745ZM85.6395 477.836C85.6029 478.387 86.02 478.864 86.571 478.9C87.1221 478.937 87.5985 478.52 87.6351 477.969L85.6395 477.836ZM87.7565 461.566C87.7282 461.014 87.2582 460.59 86.7066 460.618C86.1551 460.647 85.7309 461.117 85.7591 461.668L87.7565 461.566ZM84.1493 446.076C84.2326 446.622 84.7427 446.997 85.2887 446.914C85.8347 446.83 86.2097 446.32 86.1264 445.774L84.1493 446.076ZM83.0733 430.214C82.9457 429.676 82.4066 429.344 81.8693 429.472C81.3319 429.599 80.9998 430.138 81.1274 430.676L83.0733 430.214ZM76.9832 415.517C77.1453 416.045 77.7048 416.341 78.2327 416.179C78.7607 416.017 79.0572 415.458 78.8951 414.93L76.9832 415.517ZM73.8505 399.919C73.662 399.399 73.0884 399.131 72.5693 399.32C72.0501 399.508 71.782 400.082 71.9705 400.601L73.8505 399.919ZM66.303 385.901C66.5108 386.413 67.0941 386.659 67.6058 386.451C68.1175 386.244 68.3638 385.66 68.1559 385.149L66.303 385.901ZM61.9984 370.589C61.7768 370.084 61.1871 369.853 60.6812 370.074C60.1753 370.296 59.9448 370.886 60.1663 371.392L61.9984 370.589ZM53.7065 357.008C53.9367 357.51 54.5303 357.73 55.0323 357.5C55.5343 357.27 55.7546 356.676 55.5244 356.174L53.7065 357.008ZM48.8675 341.848C48.633 341.348 48.0376 341.133 47.5375 341.367C47.0375 341.602 46.8223 342.197 47.0568 342.698L48.8675 341.848ZM40.3423 328.411C40.5769 328.911 41.1724 329.126 41.6724 328.892C42.1724 328.657 42.3875 328.062 42.1528 327.562L40.3423 328.411ZM35.4966 313.254C35.2661 312.752 34.6723 312.532 34.1705 312.763C33.6686 312.993 33.4487 313.587 33.6793 314.089L35.4966 313.254ZM27.1923 299.68C27.4144 300.185 28.0043 300.415 28.51 300.193C29.0157 299.971 29.2455 299.381 29.0234 298.875L27.1923 299.68ZM22.8661 284.374C22.6574 283.863 22.0737 283.618 21.5624 283.826C21.051 284.035 20.8057 284.619 21.0144 285.13L22.8661 284.374ZM15.2909 270.372C15.4805 270.89 16.0547 271.157 16.5735 270.968C17.0922 270.778 17.359 270.204 17.1693 269.685L15.2909 270.372ZM12.1173 254.781C11.9536 254.254 11.3933 253.959 10.8659 254.123C10.3384 254.286 10.0435 254.847 10.2072 255.374L12.1173 254.781ZM5.97806 240.105C6.10765 240.642 6.64793 240.972 7.18479 240.843C7.72165 240.713 8.05181 240.173 7.92221 239.636L5.97806 240.105ZM4.83587 224.247C4.75005 223.702 4.23821 223.329 3.69263 223.415C3.14706 223.501 2.77434 224.012 2.86016 224.558L4.83587 224.247ZM1.15049 208.776C1.18177 209.327 1.65413 209.749 2.20553 209.718C2.75692 209.686 3.17856 209.214 3.14727 208.663L1.15049 208.776ZM2.97798 192.414C2.9855 191.862 2.54393 191.408 1.9917 191.401C1.43946 191.393 0.98569 191.835 0.978167 192.387L2.97798 192.414ZM1.49202 175.497C1.46479 176.049 1.88989 176.518 2.4415 176.545C2.99311 176.572 3.46236 176.147 3.48959 175.596L1.49202 175.497ZM4.71129 158.885C4.76593 158.335 4.3647 157.846 3.81512 157.791C3.26555 157.736 2.77574 158.138 2.7211 158.687L4.71129 158.885ZM4.87539 141.983C4.78907 142.528 5.16131 143.041 5.7068 143.127C6.2523 143.213 6.76449 142.841 6.85081 142.295L4.87539 141.983ZM9.80806 125.767C9.91177 125.224 9.55609 124.701 9.01363 124.597C8.47117 124.493 7.94735 124.849 7.84364 125.391L9.80806 125.767ZM10.8937 108.877C10.8007 109.422 11.1667 109.938 11.7111 110.031C12.2555 110.124 12.7722 109.759 12.8652 109.214L10.8937 108.877ZM15.3584 92.5485C15.4284 92.0007 15.0411 91.4998 14.4932 91.4298C13.9454 91.3598 13.4446 91.7471 13.3745 92.295L15.3584 92.5485ZM15.1702 75.6034C15.1213 76.1535 15.5276 76.6391 16.0777 76.688C16.6278 76.7369 17.1134 76.3305 17.1623 75.7804L15.1702 75.6034ZM18.3921 58.9894C18.4247 58.4381 18.0041 57.9648 17.4528 57.9322C16.9015 57.8997 16.4282 58.3202 16.3956 58.8716L18.3921 58.9894ZM17.1892 42.0795C17.169 42.6314 17.6001 43.0952 18.152 43.1154C18.704 43.1355 19.1677 42.7045 19.1879 42.1525L17.1892 42.0795ZM19.651 25.3474C19.6617 24.7952 19.2227 24.3389 18.6705 24.3283C18.1183 24.3176 17.6621 24.7566 17.6514 25.3088L19.651 25.3474ZM17.8577 8.52559C17.8546 9.07786 18.2997 9.52816 18.8519 9.53136C19.4042 9.53455 19.8545 9.08944 19.8577 8.53716L17.8577 8.52559ZM1.92232 1293.79C2.92232 1293.79 2.92232 1293.79 2.92232 1293.79C2.92232 1293.79 2.92232 1293.79 2.92232 1293.79C2.92232 1293.79 2.92232 1293.79 2.92232 1293.79C2.92232 1293.79 2.92232 1293.78 2.92232 1293.78C2.92232 1293.78 2.92232 1293.77 2.92232 1293.76C2.92232 1293.75 2.92232 1293.72 2.92232 1293.69C2.92233 1293.63 2.92233 1293.52 2.92233 1293.39C2.92234 1293.11 2.92236 1292.67 2.92237 1292.05C2.9224 1290.8 2.92244 1288.8 2.92248 1285.79H0.922483C0.922443 1288.8 0.922402 1290.8 0.922371 1292.05C0.922356 1292.67 0.922343 1293.11 0.922333 1293.39C0.922329 1293.52 0.922325 1293.63 0.922323 1293.69C0.922321 1293.72 0.922321 1293.75 0.92232 1293.76C0.92232 1293.77 0.922319 1293.78 0.922319 1293.78C0.922319 1293.78 0.922319 1293.79 0.922319 1293.79C0.922319 1293.79 0.922319 1293.79 0.922319 1293.79C0.922319 1293.79 0.922319 1293.79 0.922319 1293.79C0.922319 1293.79 0.922319 1293.79 1.92232 1293.79ZM2.9226 1269.75C2.92262 1265.24 2.92263 1259.95 2.92262 1253.75H0.922622C0.922628 1259.95 0.922621 1265.24 0.922605 1269.75H2.9226ZM2.92258 1237.72C2.92256 1232.8 2.92253 1227.47 2.9225 1221.7H0.922498C0.922533 1227.47 0.92256 1232.8 0.92258 1237.72H2.92258ZM2.92238 1205.64C2.92236 1203.04 2.92234 1200.36 2.92232 1197.61L0.922319 1197.61C0.922343 1200.36 0.922365 1203.04 0.922385 1205.64H2.92238ZM2.92232 1197.61C2.9223 1195.06 2.97698 1192.55 3.08356 1190.06L1.0854 1189.98C0.97759 1192.49 0.922297 1195.03 0.922319 1197.61L2.92232 1197.61ZM4.3814 1175.08C5.04255 1170.03 5.91529 1165.1 6.97252 1160.29L5.01906 1159.86C3.94995 1164.73 3.06715 1169.71 2.39829 1174.82L4.3814 1175.08ZM10.8025 1145.73C12.2858 1140.89 13.9427 1136.16 15.7419 1131.51L13.8769 1130.79C12.0617 1135.48 10.3887 1140.26 8.89027 1145.15L10.8025 1145.73ZM21.6185 1117.64C23.7202 1113.06 25.9372 1108.55 28.236 1104.09L26.4587 1103.17C24.148 1107.65 21.917 1112.19 19.8004 1116.81L21.6185 1117.64ZM35.3874 1090.8C37.8431 1086.39 40.347 1082.02 42.8649 1077.66L41.1336 1076.66C38.6133 1081.02 36.1033 1085.4 33.64 1089.82L35.3874 1090.8ZM50.4589 1064.58C52.9925 1060.2 55.5044 1055.82 57.9569 1051.42L56.2099 1050.44C53.765 1054.83 51.2592 1059.2 48.7278 1063.57L50.4589 1064.58ZM65.1367 1038.06C67.4545 1033.56 69.6752 1029.02 71.761 1024.41L69.939 1023.58C67.8693 1028.15 65.6636 1032.67 63.3585 1037.15L65.1367 1038.06ZM77.578 1010.37C79.3459 1005.65 80.9431 1000.84 82.3321 995.927L80.4076 995.383C79.0348 1000.24 77.4552 1004.99 75.7048 1009.67L77.578 1010.37ZM85.7925 981.117C86.6953 976.206 87.3737 971.185 87.7952 966.036L85.8018 965.873C85.386 970.953 84.7166 975.908 83.8255 980.755L85.7925 981.117ZM88.2694 950.814C88.2218 948.303 88.1121 945.761 87.9372 943.186L85.9418 943.321C86.1145 945.864 86.2228 948.374 86.2698 950.852L88.2694 950.814ZM87.9372 943.186C87.7615 940.599 87.5364 938.044 87.2646 935.518L85.2761 935.732C85.5451 938.232 85.7679 940.761 85.9418 943.321L87.9372 943.186ZM85.025 920.324C84.0694 915.225 82.9299 910.243 81.6323 905.365L79.6995 905.88C80.9849 910.712 82.1132 915.645 83.0593 920.693L85.025 920.324ZM77.1749 890.686C75.5132 885.807 73.7085 881.025 71.7899 876.322L69.9381 877.078C71.8433 881.747 73.6339 886.493 75.2817 891.331L77.1749 890.686ZM65.649 862.282C63.4885 857.635 61.2401 853.054 58.9347 848.52L57.1519 849.427C59.4488 853.943 61.6866 858.503 63.8355 863.125L65.649 862.282ZM51.8357 834.968C49.421 830.465 46.9787 825.992 44.5418 821.533L42.7868 822.492C45.2239 826.952 47.6627 831.418 50.0732 835.913L51.8357 834.968ZM37.2442 808.115C34.8284 803.626 32.4498 799.131 30.1399 794.612L28.359 795.522C30.6774 800.058 33.0631 804.566 35.483 809.063L37.2442 808.115ZM23.432 780.926C21.2862 776.325 19.2421 771.682 17.3318 766.976L15.4786 767.729C17.4035 772.47 19.4614 777.145 21.6195 781.771L23.432 780.926ZM12.0529 752.71C10.4633 747.93 9.03489 743.07 7.79837 738.114L5.85785 738.598C7.10763 743.607 8.55059 748.516 10.155 753.341L12.0529 752.71ZM4.74441 723.244C3.95364 718.33 3.36383 713.311 3.00165 708.172L1.0066 708.313C1.37308 713.513 1.96986 718.591 2.76981 723.562L4.74441 723.244ZM2.61225 692.987C2.65913 690.479 2.76094 687.942 2.9204 685.374L0.924241 685.25C0.762998 687.847 0.660022 690.413 0.612602 692.949L2.61225 692.987ZM2.9204 685.374C3.09513 682.559 3.34937 679.791 3.6777 677.065L1.69205 676.826C1.35915 679.59 1.10139 682.397 0.924241 685.25L2.9204 685.374ZM6.62324 660.65C7.93355 655.165 9.5325 649.845 11.3676 644.66L9.48225 643.993C7.6254 649.239 6.00586 654.627 4.67797 660.185L6.62324 660.65ZM17.659 629.196C19.9853 624.115 22.5049 619.145 25.1607 614.253L23.403 613.299C20.7293 618.224 18.1888 623.235 15.8405 628.364L17.659 629.196ZM33.5066 599.733C36.3908 594.943 39.3531 590.202 42.3369 585.473L40.6454 584.406C37.6591 589.139 34.6881 593.894 31.7933 598.701L33.5066 599.733ZM51.3055 571.271C54.2848 566.516 57.226 561.74 60.0677 556.912L58.3442 555.898C55.5155 560.703 52.585 565.462 49.6106 570.21L51.3055 571.271ZM68.2595 542.195C70.8502 537.214 73.281 532.147 75.4905 526.959L73.6504 526.175C71.4641 531.309 69.056 536.33 66.4851 541.273L68.2595 542.195ZM81.3539 511.13C83.0165 505.822 84.4122 500.371 85.4848 494.745L83.5202 494.37C82.4629 499.916 81.0865 505.293 79.4454 510.532L81.3539 511.13ZM87.6351 477.969C87.8193 475.194 87.9226 472.376 87.9395 469.512L85.9395 469.5C85.9229 472.324 85.8211 475.102 85.6395 477.836L87.6351 477.969ZM87.9395 469.512C87.9551 466.868 87.8925 464.219 87.7565 461.566L85.7591 461.668C85.8932 464.285 85.9549 466.896 85.9395 469.5L87.9395 469.512ZM86.1264 445.774C85.3372 440.602 84.308 435.414 83.0733 430.214L81.1274 430.676C82.3508 435.828 83.3691 440.962 84.1493 446.076L86.1264 445.774ZM78.8951 414.93C77.3611 409.935 75.6696 404.931 73.8505 399.919L71.9705 400.601C73.7797 405.585 75.4603 410.558 76.9832 415.517L78.8951 414.93ZM68.1559 385.149C66.1864 380.3 64.125 375.446 61.9984 370.589L60.1663 371.392C62.2871 376.235 64.3414 381.072 66.303 385.901L68.1559 385.149ZM55.5244 356.174C53.3348 351.4 51.1074 346.624 48.8675 341.848L47.0568 342.698C49.2956 347.471 51.5203 352.241 53.7065 357.008L55.5244 356.174ZM42.1528 327.562C39.9132 322.789 37.6863 318.02 35.4966 313.254L33.6793 314.089C35.8722 318.862 38.1017 323.637 40.3423 328.411L42.1528 327.562ZM29.0234 298.875C26.8972 294.034 24.836 289.2 22.8661 284.374L21.0144 285.13C22.9921 289.975 25.0603 294.826 27.1923 299.68L29.0234 298.875ZM17.1693 269.685C15.3488 264.705 13.6551 259.736 12.1173 254.781L10.2072 255.374C11.7559 260.364 13.4605 265.364 15.2909 270.372L17.1693 269.685ZM7.92221 239.636C6.67934 234.487 5.63958 229.357 4.83587 224.247L2.86016 224.558C3.67306 229.726 4.72382 234.909 5.97806 240.105L7.92221 239.636ZM3.14727 208.663C2.99881 206.046 2.92232 203.435 2.92232 200.831H0.922319C0.922319 203.474 0.999962 206.123 1.15049 208.776L3.14727 208.663ZM2.92232 200.831C2.92232 197.909 2.9413 195.107 2.97798 192.414L0.978167 192.387C0.941357 195.089 0.922319 197.901 0.922319 200.831H2.92232ZM3.48959 175.596C3.79397 169.43 4.21006 163.927 4.71129 158.885L2.7211 158.687C2.21643 163.764 1.79796 169.3 1.49202 175.497L3.48959 175.596ZM6.85081 142.295C7.75867 136.558 8.76558 131.219 9.80806 125.767L7.84364 125.391C6.80101 130.845 5.78872 136.211 4.87539 141.983L6.85081 142.295ZM12.8652 109.214C13.7296 104.154 14.5732 98.6927 15.3584 92.5485L13.3745 92.295C12.5934 98.4074 11.7542 103.841 10.8937 108.877L12.8652 109.214ZM17.1623 75.7804C17.6186 70.6465 18.0326 65.0802 18.3921 58.9894L16.3956 58.8716C16.0371 64.9437 15.6246 70.4902 15.1702 75.6034L17.1623 75.7804ZM19.1879 42.1525C19.3798 36.898 19.5359 31.309 19.651 25.3474L17.6514 25.3088C17.5364 31.2596 17.3807 36.8372 17.1892 42.0795L19.1879 42.1525ZM19.8577 8.53716C19.8737 5.77228 19.8819 2.93724 19.8819 0.0292969H17.8819C17.8819 2.93349 17.8737 5.76467 17.8577 8.52559L19.8577 8.53716Z" fill="white"/>
</svg>
