<svg width="49" height="1342" viewBox="0 0 49 1342" fill="none" xmlns="http://www.w3.org/2000/svg">
<path d="M12.9223 698.312L11.9242 698.25L12.9223 698.312ZM97.9395 482.506L96.9395 482.5L97.9395 482.506ZM12.9223 1210.61L11.9223 1210.61L12.9223 1210.61ZM97.9395 956.254L98.9372 956.186L97.9395 956.254ZM11.9223 1306.79C11.9223 1307.34 12.37 1307.79 12.9223 1307.79C13.4746 1307.79 13.9223 1307.34 13.9223 1306.79H11.9223ZM13.9225 1298.79C13.9225 1298.24 13.4748 1297.79 12.9225 1297.79C12.3702 1297.79 11.9225 1298.24 11.9225 1298.79H13.9225ZM11.9226 1282.75C11.9226 1283.3 12.3703 1283.75 12.9226 1283.75C13.4749 1283.75 13.9226 1283.3 13.9226 1282.75H11.9226ZM13.9226 1266.75C13.9226 1266.2 13.4749 1265.75 12.9226 1265.75C12.3703 1265.75 11.9226 1266.2 11.9226 1266.75H13.9226ZM11.9226 1250.72C11.9226 1251.27 12.3703 1251.72 12.9226 1251.72C13.4749 1251.72 13.9226 1251.27 13.9226 1250.72H11.9226ZM13.9225 1234.7C13.9225 1234.15 13.4748 1233.7 12.9225 1233.7C12.3702 1233.7 11.9225 1234.15 11.9225 1234.7H13.9225ZM11.9224 1218.64C11.9224 1219.19 12.3701 1219.64 12.9224 1219.64C13.4747 1219.64 13.9224 1219.19 13.9224 1218.64H11.9224ZM14.0836 1203.06C14.1072 1202.51 13.6791 1202.05 13.1274 1202.02C12.5756 1202 12.1091 1202.43 12.0854 1202.98L14.0836 1203.06ZM13.3983 1187.82C13.3267 1188.37 13.7125 1188.87 14.2601 1188.94C14.8078 1189.01 15.3098 1188.63 15.3814 1188.08L13.3983 1187.82ZM17.9725 1173.29C18.091 1172.75 17.7497 1172.21 17.2103 1172.09C16.6709 1171.98 16.1375 1172.32 16.0191 1172.86L17.9725 1173.29ZM19.8903 1158.15C19.7285 1158.67 20.0254 1159.23 20.5535 1159.4C21.0815 1159.56 21.6407 1159.26 21.8025 1158.73L19.8903 1158.15ZM26.7419 1144.51C26.9413 1144 26.6855 1143.42 26.1705 1143.22C25.6555 1143.02 25.0763 1143.27 24.8769 1143.79L26.7419 1144.51ZM30.8004 1129.81C30.5703 1130.31 30.7907 1130.9 31.2928 1131.13C31.7948 1131.36 32.3884 1131.14 32.6185 1130.64L30.8004 1129.81ZM39.236 1117.09C39.4893 1116.6 39.2968 1116 38.806 1115.74C38.3152 1115.49 37.712 1115.68 37.4587 1116.17L39.236 1117.09ZM44.64 1102.82C44.3713 1103.31 44.5446 1103.92 45.0272 1104.18C45.5097 1104.45 46.1187 1104.28 46.3874 1103.8L44.64 1102.82ZM53.8649 1090.66C54.1414 1090.18 53.978 1089.57 53.4999 1089.3C53.0218 1089.02 52.4101 1089.18 52.1336 1089.66L53.8649 1090.66ZM59.7278 1076.57C59.4512 1077.05 59.6145 1077.66 60.0925 1077.94C60.5705 1078.22 61.1822 1078.05 61.4589 1077.58L59.7278 1076.57ZM68.9569 1064.42C69.2258 1063.93 69.0527 1063.32 68.5703 1063.06C68.0878 1062.79 67.4788 1062.96 67.2099 1063.44L68.9569 1064.42ZM74.3585 1050.15C74.1057 1050.64 74.2989 1051.24 74.7899 1051.49C75.281 1051.75 75.884 1051.55 76.1367 1051.06L74.3585 1050.15ZM82.761 1037.41C82.9887 1036.9 82.7655 1036.31 82.2624 1036.08C81.7592 1035.86 81.1667 1036.08 80.939 1036.58L82.761 1037.41ZM86.7048 1022.67C86.5113 1023.19 86.7738 1023.76 87.2911 1023.96C87.8083 1024.15 88.3845 1023.89 88.578 1023.37L86.7048 1022.67ZM93.3321 1008.93C93.4824 1008.4 93.1735 1007.84 92.642 1007.69C92.1106 1007.54 91.5579 1007.85 91.4076 1008.38L93.3321 1008.93ZM94.8255 993.755C94.7256 994.298 95.085 994.819 95.6281 994.919C96.1713 995.019 96.6926 994.66 96.7925 994.117L94.8255 993.755ZM98.7952 979.036C98.8402 978.486 98.4305 978.003 97.8801 977.958C97.3296 977.913 96.8469 978.323 96.8018 978.873L98.7952 979.036ZM97.2698 963.852C97.2803 964.405 97.7364 964.844 98.2886 964.833C98.8408 964.823 99.2799 964.367 99.2694 963.814L97.2698 963.852ZM98.2646 948.518C98.2056 947.969 97.7125 947.572 97.1634 947.631C96.6143 947.69 96.217 948.183 96.2761 948.732L98.2646 948.518ZM94.0593 933.693C94.161 934.236 94.6835 934.593 95.2263 934.492C95.7692 934.39 96.1268 933.867 96.025 933.324L94.0593 933.693ZM92.6323 918.365C92.4903 917.832 91.9425 917.514 91.4088 917.656C90.8751 917.798 90.5575 918.346 90.6995 918.88L92.6323 918.365ZM86.2817 904.331C86.4598 904.853 87.0279 905.133 87.5507 904.955C88.0735 904.777 88.353 904.208 88.1749 903.686L86.2817 904.331ZM82.7899 889.322C82.5813 888.811 81.9976 888.566 81.4863 888.774C80.9749 888.983 80.7295 889.567 80.9381 890.078L82.7899 889.322ZM74.8355 876.125C75.0683 876.626 75.663 876.843 76.1638 876.61C76.6646 876.377 76.8819 875.783 76.649 875.282L74.8355 876.125ZM69.9347 861.52C69.6843 861.028 69.0823 860.832 68.59 861.082C68.0977 861.333 67.9016 861.935 68.1519 862.427L69.9347 861.52ZM61.0732 848.913C61.3342 849.4 61.9404 849.582 62.4271 849.321C62.9138 849.06 63.0967 848.454 62.8357 847.968L61.0732 848.913ZM55.5418 834.533C55.2769 834.048 54.6694 833.87 54.1847 834.135C53.7001 834.4 53.5219 835.008 53.7868 835.492L55.5418 834.533ZM46.483 822.063C46.7447 822.549 47.3512 822.731 47.8375 822.47C48.3238 822.208 48.5059 821.602 48.2442 821.115L46.483 822.063ZM41.1399 807.612C40.8885 807.12 40.2861 806.925 39.7943 807.177C39.3026 807.428 39.1077 808.031 39.359 808.522L41.1399 807.612ZM32.6195 794.771C32.8529 795.272 33.4479 795.488 33.9485 795.255C34.449 795.021 34.6655 794.426 34.432 793.926L32.6195 794.771ZM28.3318 779.976C28.124 779.465 27.5408 779.218 27.029 779.426C26.5173 779.634 26.2709 780.217 26.4786 780.729L28.3318 779.976ZM21.155 766.341C21.3293 766.865 21.8954 767.149 22.4194 766.975C22.9435 766.8 23.2271 766.234 23.0529 765.71L21.155 766.341ZM18.7984 751.114C18.6647 750.578 18.1219 750.252 17.586 750.386C17.0502 750.52 16.7242 751.062 16.8579 751.598L18.7984 751.114ZM13.7698 736.562C13.8575 737.107 14.3707 737.478 14.916 737.391C15.4612 737.303 15.8321 736.79 15.7444 736.244L13.7698 736.562ZM14.0017 721.172C13.9628 720.621 13.4847 720.206 12.9338 720.245C12.3829 720.284 11.9678 720.762 12.0066 721.313L14.0017 721.172ZM11.6126 705.949C11.6023 706.501 12.0415 706.957 12.5937 706.968C13.1459 706.978 13.6019 706.539 13.6123 705.987L11.6126 705.949ZM14.6777 690.065C14.7437 689.517 14.3528 689.019 13.8045 688.953C13.2561 688.887 12.7581 689.277 12.692 689.826L14.6777 690.065ZM15.678 673.185C15.5497 673.723 15.8811 674.262 16.4183 674.391C16.9554 674.519 17.4949 674.187 17.6232 673.65L15.678 673.185ZM22.3676 657.66C22.5519 657.139 22.2792 656.568 21.7586 656.384C21.238 656.199 20.6665 656.472 20.4823 656.993L22.3676 657.66ZM26.8405 641.364C26.6106 641.866 26.8313 642.459 27.3335 642.689C27.8356 642.919 28.4291 642.698 28.659 642.196L26.8405 641.364ZM36.1607 627.253C36.4242 626.767 36.2444 626.16 35.759 625.897C35.2736 625.633 34.6665 625.813 34.403 626.299L36.1607 627.253ZM42.7933 611.701C42.5084 612.174 42.661 612.789 43.1341 613.074C43.6072 613.359 44.2217 613.206 44.5066 612.733L42.7933 611.701ZM53.3369 598.473C53.6316 598.006 53.4918 597.388 53.0247 597.094C52.5577 596.799 51.9401 596.939 51.6454 597.406L53.3369 598.473ZM60.6106 583.21C60.3174 583.678 60.4592 584.295 60.9272 584.588C61.3952 584.881 62.0123 584.739 62.3055 584.271L60.6106 583.21ZM71.0677 569.912C71.3479 569.436 71.1892 568.823 70.7133 568.543C70.2373 568.263 69.6244 568.422 69.3442 568.898L71.0677 569.912ZM77.4851 554.273C77.2303 554.762 77.4209 555.366 77.9109 555.621C78.4008 555.876 79.0046 555.685 79.2595 555.195L77.4851 554.273ZM86.4905 539.959C86.7069 539.451 86.4704 538.863 85.9623 538.647C85.4542 538.431 84.8668 538.667 84.6504 539.175L86.4905 539.959ZM90.4454 523.532C90.2803 524.059 90.5737 524.62 91.1007 524.785C91.6278 524.95 92.1888 524.657 92.3539 524.13L90.4454 523.532ZM96.4848 507.745C96.5882 507.202 96.2323 506.679 95.6898 506.575C95.1472 506.472 94.6236 506.828 94.5202 507.37L96.4848 507.745ZM96.6395 490.836C96.6029 491.387 97.02 491.864 97.571 491.9C98.1221 491.937 98.5985 491.52 98.6351 490.969L96.6395 490.836ZM98.7565 474.566C98.7282 474.014 98.2582 473.59 97.7066 473.618C97.1551 473.647 96.7309 474.117 96.7591 474.668L98.7565 474.566ZM95.1493 459.076C95.2326 459.622 95.7427 459.997 96.2887 459.914C96.8347 459.83 97.2097 459.32 97.1264 458.774L95.1493 459.076ZM94.0733 443.214C93.9457 442.676 93.4066 442.344 92.8693 442.472C92.3319 442.599 91.9998 443.138 92.1274 443.676L94.0733 443.214ZM87.9832 428.517C88.1453 429.045 88.7048 429.341 89.2327 429.179C89.7607 429.017 90.0572 428.458 89.8951 427.93L87.9832 428.517ZM84.8505 412.919C84.662 412.399 84.0884 412.131 83.5693 412.32C83.0501 412.508 82.782 413.082 82.9705 413.601L84.8505 412.919ZM77.303 398.901C77.5108 399.413 78.0941 399.659 78.6058 399.451C79.1175 399.244 79.3638 398.66 79.1559 398.149L77.303 398.901ZM72.9984 383.589C72.7768 383.084 72.1871 382.853 71.6812 383.074C71.1753 383.296 70.9448 383.886 71.1663 384.392L72.9984 383.589ZM64.7065 370.008C64.9367 370.51 65.5303 370.73 66.0323 370.5C66.5343 370.27 66.7546 369.676 66.5244 369.174L64.7065 370.008ZM59.8675 354.848C59.633 354.348 59.0376 354.133 58.5375 354.367C58.0375 354.602 57.8223 355.197 58.0568 355.698L59.8675 354.848ZM51.3423 341.411C51.5769 341.911 52.1724 342.126 52.6724 341.892C53.1724 341.657 53.3875 341.062 53.1528 340.562L51.3423 341.411ZM46.4966 326.254C46.2661 325.752 45.6723 325.532 45.1705 325.763C44.6686 325.993 44.4487 326.587 44.6793 327.089L46.4966 326.254ZM38.1923 312.68C38.4144 313.185 39.0043 313.415 39.51 313.193C40.0157 312.971 40.2455 312.381 40.0234 311.875L38.1923 312.68ZM33.8661 297.374C33.6574 296.863 33.0737 296.618 32.5624 296.826C32.051 297.035 31.8057 297.619 32.0144 298.13L33.8661 297.374ZM26.2909 283.372C26.4805 283.89 27.0547 284.157 27.5735 283.968C28.0922 283.778 28.359 283.204 28.1693 282.685L26.2909 283.372ZM23.1173 267.781C22.9536 267.254 22.3933 266.959 21.8659 267.123C21.3384 267.286 21.0435 267.847 21.2072 268.374L23.1173 267.781ZM16.9781 253.105C17.1077 253.642 17.6479 253.972 18.1848 253.843C18.7217 253.713 19.0518 253.173 18.9222 252.636L16.9781 253.105ZM15.8359 237.247C15.7501 236.702 15.2382 236.329 14.6926 236.415C14.1471 236.501 13.7743 237.012 13.8602 237.558L15.8359 237.247ZM12.1505 221.776C12.1818 222.327 12.6541 222.749 13.2055 222.718C13.7569 222.686 14.1786 222.214 14.1473 221.663L12.1505 221.776ZM13.978 205.414C13.9855 204.862 13.5439 204.408 12.9917 204.401C12.4395 204.393 11.9857 204.835 11.9782 205.387L13.978 205.414ZM12.492 188.497C12.4648 189.049 12.8899 189.518 13.4415 189.545C13.9931 189.572 14.4624 189.147 14.4896 188.596L12.492 188.497ZM15.7113 171.885C15.7659 171.335 15.3647 170.846 14.8151 170.791C14.2655 170.736 13.7757 171.138 13.7211 171.687L15.7113 171.885ZM15.8754 154.983C15.7891 155.528 16.1613 156.041 16.7068 156.127C17.2523 156.213 17.7645 155.841 17.8508 155.295L15.8754 154.983ZM20.8081 138.767C20.9118 138.224 20.5561 137.701 20.0136 137.597C19.4712 137.493 18.9473 137.849 18.8436 138.391L20.8081 138.767ZM21.8937 121.877C21.8007 122.422 22.1667 122.938 22.7111 123.031C23.2555 123.124 23.7722 122.759 23.8652 122.214L21.8937 121.877ZM26.3584 105.548C26.4284 105.001 26.0411 104.5 25.4932 104.43C24.9454 104.36 24.4446 104.747 24.3745 105.295L26.3584 105.548ZM26.1702 88.6034C26.1213 89.1535 26.5276 89.6391 27.0777 89.688C27.6278 89.7369 28.1134 89.3305 28.1623 88.7804L26.1702 88.6034ZM29.3921 71.9894C29.4247 71.4381 29.0041 70.9648 28.4528 70.9322C27.9015 70.8997 27.4282 71.3202 27.3956 71.8716L29.3921 71.9894ZM28.1892 55.0795C28.169 55.6314 28.6001 56.0952 29.152 56.1154C29.704 56.1355 30.1677 55.7045 30.1879 55.1525L28.1892 55.0795ZM30.651 38.3474C30.6617 37.7952 30.2227 37.3389 29.6705 37.3283C29.1183 37.3176 28.6621 37.7566 28.6514 38.3088L30.651 38.3474ZM28.8577 21.5256C28.8546 22.0779 29.2997 22.5282 29.8519 22.5314C30.4042 22.5346 30.8545 22.0894 30.8577 21.5372L28.8577 21.5256ZM12.9223 1306.79C13.9223 1306.79 13.9223 1306.79 13.9223 1306.79C13.9223 1306.79 13.9223 1306.79 13.9223 1306.79C13.9223 1306.79 13.9223 1306.79 13.9223 1306.79C13.9223 1306.79 13.9223 1306.78 13.9223 1306.78C13.9223 1306.78 13.9223 1306.77 13.9223 1306.76C13.9223 1306.75 13.9223 1306.72 13.9223 1306.69C13.9223 1306.63 13.9223 1306.52 13.9223 1306.39C13.9223 1306.11 13.9224 1305.67 13.9224 1305.05C13.9224 1303.8 13.9224 1301.8 13.9225 1298.79H11.9225C11.9224 1301.8 11.9224 1303.8 11.9224 1305.05C11.9224 1305.67 11.9223 1306.11 11.9223 1306.39C11.9223 1306.52 11.9223 1306.63 11.9223 1306.69C11.9223 1306.72 11.9223 1306.75 11.9223 1306.76C11.9223 1306.77 11.9223 1306.78 11.9223 1306.78C11.9223 1306.78 11.9223 1306.79 11.9223 1306.79C11.9223 1306.79 11.9223 1306.79 11.9223 1306.79C11.9223 1306.79 11.9223 1306.79 11.9223 1306.79C11.9223 1306.79 11.9223 1306.79 12.9223 1306.79ZM13.9226 1282.75C13.9226 1278.24 13.9226 1272.95 13.9226 1266.75H11.9226C11.9226 1272.95 11.9226 1278.24 11.9226 1282.75H13.9226ZM13.9226 1250.72C13.9226 1245.8 13.9225 1240.47 13.9225 1234.7H11.9225C11.9225 1240.47 11.9226 1245.8 11.9226 1250.72H13.9226ZM13.9224 1218.64C13.9224 1216.04 13.9223 1213.36 13.9223 1210.61L11.9223 1210.61C11.9223 1213.36 11.9224 1216.04 11.9224 1218.64H13.9224ZM13.9223 1210.61C13.9223 1208.06 13.977 1205.55 14.0836 1203.06L12.0854 1202.98C11.9776 1205.49 11.9223 1208.03 11.9223 1210.61L13.9223 1210.61ZM15.3814 1188.08C16.0425 1183.03 16.9153 1178.1 17.9725 1173.29L16.0191 1172.86C14.95 1177.73 14.0671 1182.71 13.3983 1187.82L15.3814 1188.08ZM21.8025 1158.73C23.2858 1153.89 24.9427 1149.16 26.7419 1144.51L24.8769 1143.79C23.0617 1148.48 21.3887 1153.26 19.8903 1158.15L21.8025 1158.73ZM32.6185 1130.64C34.7202 1126.06 36.9372 1121.55 39.236 1117.09L37.4587 1116.17C35.148 1120.65 32.917 1125.19 30.8004 1129.81L32.6185 1130.64ZM46.3874 1103.8C48.8431 1099.39 51.347 1095.02 53.8649 1090.66L52.1336 1089.66C49.6133 1094.02 47.1033 1098.4 44.64 1102.82L46.3874 1103.8ZM61.4589 1077.58C63.9925 1073.2 66.5044 1068.82 68.9569 1064.42L67.2099 1063.44C64.765 1067.83 62.2592 1072.2 59.7278 1076.57L61.4589 1077.58ZM76.1367 1051.06C78.4545 1046.56 80.6752 1042.02 82.761 1037.41L80.939 1036.58C78.8693 1041.15 76.6636 1045.67 74.3585 1050.15L76.1367 1051.06ZM88.578 1023.37C90.3459 1018.65 91.9431 1013.84 93.3321 1008.93L91.4076 1008.38C90.0348 1013.24 88.4552 1017.99 86.7048 1022.67L88.578 1023.37ZM96.7925 994.117C97.6953 989.206 98.3737 984.185 98.7952 979.036L96.8018 978.873C96.386 983.953 95.7166 988.908 94.8255 993.755L96.7925 994.117ZM99.2694 963.814C99.2218 961.303 99.1121 958.761 98.9372 956.186L96.9418 956.321C97.1145 958.864 97.2228 961.374 97.2698 963.852L99.2694 963.814ZM98.9372 956.186C98.7615 953.599 98.5364 951.044 98.2646 948.518L96.2761 948.732C96.5451 951.232 96.7679 953.761 96.9418 956.321L98.9372 956.186ZM96.025 933.324C95.0694 928.225 93.9299 923.243 92.6323 918.365L90.6995 918.88C91.9849 923.712 93.1132 928.645 94.0593 933.693L96.025 933.324ZM88.1749 903.686C86.5132 898.807 84.7085 894.025 82.7899 889.322L80.9381 890.078C82.8433 894.747 84.6339 899.493 86.2817 904.331L88.1749 903.686ZM76.649 875.282C74.4885 870.635 72.2401 866.054 69.9347 861.52L68.1519 862.427C70.4488 866.943 72.6866 871.503 74.8355 876.125L76.649 875.282ZM62.8357 847.968C60.421 843.465 57.9787 838.992 55.5418 834.533L53.7868 835.492C56.2239 839.952 58.6627 844.418 61.0732 848.913L62.8357 847.968ZM48.2442 821.115C45.8284 816.626 43.4498 812.131 41.1399 807.612L39.359 808.522C41.6774 813.058 44.0631 817.566 46.483 822.063L48.2442 821.115ZM34.432 793.926C32.2862 789.325 30.2421 784.682 28.3318 779.976L26.4786 780.729C28.4035 785.47 30.4614 790.145 32.6195 794.771L34.432 793.926ZM23.0529 765.71C21.4633 760.93 20.0349 756.07 18.7984 751.114L16.8579 751.598C18.1076 756.607 19.5506 761.516 21.155 766.341L23.0529 765.71ZM15.7444 736.244C14.9536 731.33 14.3638 726.311 14.0017 721.172L12.0066 721.313C12.3731 726.513 12.9699 731.591 13.7698 736.562L15.7444 736.244ZM13.6123 705.987C13.6591 703.479 13.7609 700.942 13.9204 698.374L11.9242 698.25C11.763 700.847 11.66 703.413 11.6126 705.949L13.6123 705.987ZM13.9204 698.374C14.0951 695.559 14.3494 692.791 14.6777 690.065L12.692 689.826C12.3591 692.59 12.1014 695.397 11.9242 698.25L13.9204 698.374ZM17.6232 673.65C18.9335 668.165 20.5325 662.845 22.3676 657.66L20.4823 656.993C18.6254 662.239 17.0059 667.627 15.678 673.185L17.6232 673.65ZM28.659 642.196C30.9853 637.115 33.5049 632.145 36.1607 627.253L34.403 626.299C31.7293 631.224 29.1888 636.235 26.8405 641.364L28.659 642.196ZM44.5066 612.733C47.3908 607.943 50.3531 603.202 53.3369 598.473L51.6454 597.406C48.6591 602.139 45.6881 606.894 42.7933 611.701L44.5066 612.733ZM62.3055 584.271C65.2848 579.516 68.226 574.74 71.0677 569.912L69.3442 568.898C66.5155 573.703 63.585 578.462 60.6106 583.21L62.3055 584.271ZM79.2595 555.195C81.8502 550.214 84.281 545.147 86.4905 539.959L84.6504 539.175C82.4641 544.309 80.056 549.33 77.4851 554.273L79.2595 555.195ZM92.3539 524.13C94.0165 518.822 95.4122 513.371 96.4848 507.745L94.5202 507.37C93.4629 512.916 92.0865 518.293 90.4454 523.532L92.3539 524.13ZM98.6351 490.969C98.8193 488.194 98.9226 485.376 98.9395 482.512L96.9395 482.5C96.9229 485.324 96.8211 488.102 96.6395 490.836L98.6351 490.969ZM98.9395 482.512C98.9551 479.868 98.8925 477.219 98.7565 474.566L96.7591 474.668C96.8932 477.285 96.9549 479.896 96.9395 482.5L98.9395 482.512ZM97.1264 458.774C96.3372 453.602 95.308 448.414 94.0733 443.214L92.1274 443.676C93.3508 448.828 94.3691 453.962 95.1493 459.076L97.1264 458.774ZM89.8951 427.93C88.3611 422.935 86.6696 417.931 84.8505 412.919L82.9705 413.601C84.7797 418.585 86.4603 423.558 87.9832 428.517L89.8951 427.93ZM79.1559 398.149C77.1864 393.3 75.125 388.446 72.9984 383.589L71.1663 384.392C73.2871 389.235 75.3414 394.072 77.303 398.901L79.1559 398.149ZM66.5244 369.174C64.3348 364.4 62.1074 359.624 59.8675 354.848L58.0568 355.698C60.2956 360.471 62.5203 365.241 64.7065 370.008L66.5244 369.174ZM53.1528 340.562C50.9132 335.789 48.6863 331.02 46.4966 326.254L44.6793 327.089C46.8722 331.862 49.1017 336.637 51.3423 341.411L53.1528 340.562ZM40.0234 311.875C37.8972 307.034 35.836 302.2 33.8661 297.374L32.0144 298.13C33.9921 302.975 36.0603 307.826 38.1923 312.68L40.0234 311.875ZM28.1693 282.685C26.3488 277.705 24.6551 272.736 23.1173 267.781L21.2072 268.374C22.7559 273.364 24.4605 278.364 26.2909 283.372L28.1693 282.685ZM18.9222 252.636C17.6793 247.487 16.6396 242.357 15.8359 237.247L13.8602 237.558C14.6731 242.726 15.7238 247.909 16.9781 253.105L18.9222 252.636ZM14.1473 221.663C13.9988 219.046 13.9223 216.435 13.9223 213.831H11.9223C11.9223 216.474 12 219.123 12.1505 221.776L14.1473 221.663ZM13.9223 213.831C13.9223 210.909 13.9413 208.107 13.978 205.414L11.9782 205.387C11.9414 208.089 11.9223 210.901 11.9223 213.831H13.9223ZM14.4896 188.596C14.794 182.43 15.2101 176.927 15.7113 171.885L13.7211 171.687C13.2164 176.764 12.798 182.3 12.492 188.497L14.4896 188.596ZM17.8508 155.295C18.7587 149.558 19.7656 144.219 20.8081 138.767L18.8436 138.391C17.801 143.845 16.7887 149.211 15.8754 154.983L17.8508 155.295ZM23.8652 122.214C24.7296 117.154 25.5732 111.693 26.3584 105.548L24.3745 105.295C23.5934 111.407 22.7542 116.841 21.8937 121.877L23.8652 122.214ZM28.1623 88.7804C28.6186 83.6465 29.0326 78.0802 29.3921 71.9894L27.3956 71.8716C27.0371 77.9437 26.6246 83.4902 26.1702 88.6034L28.1623 88.7804ZM30.1879 55.1525C30.3798 49.898 30.5359 44.309 30.651 38.3474L28.6514 38.3088C28.5364 44.2596 28.3807 49.8372 28.1892 55.0795L30.1879 55.1525ZM30.8577 21.5372C30.8737 18.7723 30.8819 15.9372 30.8819 13.0293H28.8819C28.8819 15.9335 28.8737 18.7647 28.8577 21.5256L30.8577 21.5372Z" fill="white"/>
<ellipse cx="29.6526" cy="12.0258" rx="12.3127" ry="12.0258" fill="white"/>
<ellipse cx="12.6487" cy="1329.97" rx="12.3127" ry="12.0258" fill="white"/>
</svg>
